<svg xmlns="http://www.w3.org/2000/svg" viewBox="0 0 512 512"><path fill="#ffe278" d="M256 0l-63.73 128L256 256l135.58-45.44 45.44-135.58A255.2 255.2 0 00256 0z" data-original="#ffe278"/><path fill="#b0d16f" d="M256 0A255.2 255.2 0 0074.98 74.98l45.44 135.58L256 256z" data-original="#b0d16f"/><path fill="#45c5ff" d="M74.98 74.98A255.2 255.2 0 000 256l128 63.73L256 256z" data-original="#45c5ff"/><path fill="#0ca8ed" d="M0 256c0 65.52 25 131.03 74.98 181.02l135.58-45.44L256 256z" data-original="#0ca8ed"/><path fill="#1365c2" d="M74.98 437.02A255.2 255.2 0 00256 512l63.73-128L256 256z" data-original="#1365c2"/><path fill="#f71e78" d="M256 512c65.52 0 131.03-25 181.02-74.98l-45.44-135.58L256 256z" data-original="#f71e78"/><path fill="#ff776b" d="M437.02 437.02A255.2 255.2 0 00512 256l-128-63.73L256 256z" data-original="#ff776b"/><path fill="#ffb54c" d="M437.02 74.98L256 256h256c0-65.52-25-131.03-74.98-181.02z" data-original="#ffb54c"/></svg>