<?xml version="1.0" encoding="UTF-8"?>
<svg id="Layer_1" xmlns="http://www.w3.org/2000/svg" version="1.1" viewBox="0 0 600 200">
  <!-- Generator: Adobe Illustrator 29.2.1, SVG Export Plug-In . SVG Version: 2.1.0 Build 116)  -->
  <defs>
    <style>
      .st0 {
        stroke-width: 4px;
      }

      .st0, .st1, .st2, .st3 {
        fill: none;
        stroke: #fff;
      }

      .st0, .st2, .st3 {
        stroke-linecap: round;
        stroke-linejoin: round;
      }

      .st4 {
        fill: #fff;
      }

      .st1 {
        stroke-miterlimit: 10;
      }

      .st1, .st3 {
        stroke-width: 5px;
      }

      .st2 {
        stroke-width: 8px;
      }
    </style>
  </defs>
  <polyline class="st3" points="347.2 37 345.4 26.9 464.6 5 470.5 37"/>
  <polyline class="st3" points="467.7 22.1 513.7 17.6 515.6 37"/>
  <g>
    <path class="st4" d="M117,70.3c5.9-3.4,16.5-16.3,16.5-21.1s-1.1-5.6-5.9-5.6c-17.2,0-62.6,29.3-62.6,48.2s1,5.4,5.6,5.4,15.3-1.3,24.3-1.3,17,4.2,20.9,10l14-4.2c4.6-1.3,14.2-2.7,16.1-2.7s2.7,1.1,2.7,2.7-.8,3.1-3.1,3.3c-2.7.4-10,1.5-13.8,2.7-3.8,1.1-8.2,2.5-13.2,4,.4,1.3.4,2.7.4,3.8,0,37.1-43.8,79.5-67.2,79.5s-20.3-8.2-20.3-18.6,9.8-29.1,35.8-47.7c13.8-9.8,27.6-15.7,39.6-19.9-3.8-4.6-9.8-5.4-16.5-5.4s-16.3,1.7-22.6,1.7-12.6-3.8-12.6-12.1c0-24.5,50.2-56.7,74.7-56.7s12.8,3.4,12.8,10.3c0,9.8-17.8,27.2-21.8,31.2-2.7,2.5-4.6,4.2-7.3,4.2s-4.2-1.5-4.2-4.2,2.1-4,7.9-7.7ZM109.9,114.7c-12.1,4.2-25.8,10.5-39.3,20.7-23.7,17.8-30.8,30.8-30.8,39.6s4.4,12.3,12.4,12.3c18.4,0,58.2-39.1,58.2-68.2s-.2-2.9-.6-4.4Z"/>
    <path class="st4" d="M174.6,96.7c3.1,0,5,1.7,5,4s-5,9-9,16.7c-2.3,4.2-3.4,8-3.4,10.9s.8,4.6,2.5,4.6c6.9,0,18.4-12.3,25.5-21.4,2.1-2.9,3.8-4.8,5.7-4.8s2.7,1.1,2.7,2.7-.8,2.9-2.9,5.6c-9.2,10.9-24.1,25.7-33.7,25.7s-9-4.2-9-9,.4-4.8.4-6.5,0-1.7-.4-1.7c-1.1,0-4.2,3.6-8.4,7.5-9,7.9-14.9,11.7-19.3,11.7s-5.7-2.9-5.7-7.5c0-19.5,20.9-38.5,36.6-38.7,3.6,0,7.1,4.4,7.9,4.4,1.5,0,2.5-4,5.7-4ZM133.3,131c0,1.1.8,2.3,2.3,2.3,3.3,0,28.1-21.6,28.1-24.9s-3.3-.4-3.3-2.5-.6-2.3-2.1-2.3c-8.2,0-25.1,18-25.1,27.4Z"/>
    <path class="st4" d="M205.7,106.3c0,7.1-5,23-5,25.3s.2,1.3,1.1,1.3c4.8,0,23.6-23.7,23.6-42.3s-2.7-6.5-2.7-8.8,1.7-4.4,3.8-4.4,6.5.4,6.5,11.9c0,17.2-20.7,52.3-33.9,52.3s-7.3-3.4-7.3-7.9,5.2-17.2,5.2-25.1-.2-2.3-.2-5.2,1.5-4.8,3.8-4.8,5,2.9,5,7.7Z"/>
    <path class="st4" d="M279.9,111.5c2.3-2.9,4-4.8,5.9-4.8s2.7,1.1,2.7,2.7-.8,2.9-2.9,5.6c-9.2,10.9-24.9,28-46.1,28s-11.5-6.1-11.5-12.3-.6-2.5-.6-4.4,1.5-3.8,3.3-4.6c7.9-18.2,20.7-25.5,30.4-25.5s7.9,3.1,7.9,6.7c0,9.8-16.7,20.9-28.5,23.6-3.4.8-3.6,1.9-3.6,3.8s1.1,5.7,5.7,5.7c16.8,0,30.4-15.3,37.3-24.5ZM239.4,120.5c6.7-.2,21.8-10.9,21.8-14.9s-.8-1.9-2.3-1.9c-5.9,0-16.7,12.3-19.5,16.8Z"/>
    <path class="st4" d="M292.8,98.3c0,2.3-2.7,7.3-2.7,9s0,.6.4.6c.8,0,1.3-.6,2.3-1.5,7.1-7.5,12.6-11.7,17.4-11.7s6.9,2.3,6.9,6.7-1.9,11.5-6.7,11.5-3.6-1.5-3.6-3.6,1.3-4.2,1.3-5.2-.6-1.3-1.7-1.3c-2.7,0-15.3,12.3-21.4,21.8-4.4,6.9-7.9,18-9.6,18s-4.4-2.5-4.4-4.4,3.1-10.3,5.9-17.4c3.1-7.3,5.9-14.6,6.9-18.4,1.3-4.6,2.7-6.9,5.4-6.9s3.6,1.3,3.6,2.9Z"/>
    <path class="st4" d="M320,114c0-10,14.6-19.1,23-19.1s7.7,2.9,7.7,6.9-2.5,10.7-6.3,10.7-4-1.1-4-3.3c0-3.3,2.9-3.8,2.9-4.6,0-1.1-1.3-2.5-2.9-2.5-2.7,0-11.7,5.2-11.7,10.7s13.8,4.6,13.8,16.8-5.6,13.2-16.7,13.2-11.9-4.8-11.9-9.4,1.9-4.8,4.2-4.8,3.4,1,3.4,2.9c0,3.3,1.7,5.2,5.4,5.2s6.7-3.3,6.7-7.1c0-7.5-13.6-7.1-13.6-15.7Z"/>
  </g>
  <path class="st2" d="M327.7,89.2v-39.5c0-7,5.7-12.7,12.7-12.7h215.6c7,0,12.7,5.7,12.7,12.7v125.2c0,7-5.7,12.7-12.7,12.7h-215.6c-7,0-12.7-5.7-12.7-12.7v-23.1"/>
  <path class="st1" d="M481.1,89.2h87.7v46.2h-87.7c-6.3,0-11.4-5.1-11.4-11.4v-23.4c0-6.3,5.1-11.4,11.4-11.4Z"/>
  <circle class="st1" cx="490.3" cy="112.3" r="9"/>
  <g>
    <path class="st4" d="M132.5,30.1h-12.2c-.9,0-1.5-.7-1.5-1.5v-6.6c0-.8.6-1.5,1.5-1.5h35c.9,0,1.5.7,1.5,1.5v6.6c0,.8-.6,1.5-1.5,1.5h-12.2v44.9c0,.8-.7,1.5-1.5,1.5h-7.4c-.8,0-1.5-.7-1.5-1.5V30.1Z"/>
    <path class="st4" d="M165.1,22c0-.8.6-1.5,1.5-1.5h22.9c9.6,0,17.4,7.7,17.4,17.2s-4.9,13.4-11.8,16.2l11,20.3c.6,1,0,2.3-1.4,2.3h-8.4c-.7,0-1.1-.4-1.3-.7l-10.6-21.2h-8.9v20.4c0,.8-.7,1.5-1.5,1.5h-7.4c-.9,0-1.5-.7-1.5-1.5V22ZM188.6,46c4.2,0,7.9-3.7,7.9-8.2s-3.7-7.8-7.9-7.8h-13v15.9h13Z"/>
    <path class="st4" d="M211.1,74.4l24.9-53.9c.2-.5.6-.9,1.4-.9h.8c.8,0,1.1.4,1.4.9l24.6,53.9c.5,1-.2,2.1-1.4,2.1h-7c-1.2,0-1.8-.5-2.3-1.6l-3.9-8.6h-23.9l-3.9,8.6c-.3.8-1,1.6-2.3,1.6h-7c-1.2,0-1.8-1-1.4-2.1ZM245.7,57.4l-8-17.6h-.2l-7.8,17.6h16.1Z"/>
    <path class="st4" d="M254.6,22.6c-.5-1,.2-2.1,1.4-2.1h8.2c.7,0,1.2.5,1.4.9l15.4,34.4h.6l15.4-34.4c.2-.4.6-.9,1.4-.9h8.2c1.2,0,1.8,1,1.4,2.1l-24.8,53.9c-.2.5-.6.9-1.4.9h-.8c-.7,0-1.1-.4-1.4-.9l-24.7-53.9Z"/>
  </g>
  <line class="st0" x1="126.8" y1="161.4" x2="327.7" y2="161.4"/>
</svg>